<?xml version="1.0" encoding="utf-8"?>
<!-- Generator: Adobe Illustrator 26.4.1, SVG Export Plug-In . SVG Version: 6.00 Build 0)  -->
<svg version="1.1" id="Layer_1" xmlns="http://www.w3.org/2000/svg" xmlns:xlink="http://www.w3.org/1999/xlink" x="0px" y="0px"
	 viewBox="0 0 154 32" style="enable-background:new 0 0 154 32;" xml:space="preserve">
<style type="text/css">
	.st0{fill:#465FFF;}
	.st1{fill:#FFFFFF;}
	.st2{font-family:'Poppins-SemiBold';}
	.st3{font-size:22.7459px;}
	.st4{letter-spacing:1;}
</style>
<path class="st0" d="M0.5,8.3c0-4.7,3.8-8.4,8.4-8.4h15.2c4.7,0,8.4,3.8,8.4,8.4v15.2c0,4.7-3.8,8.4-8.4,8.4H8.9
	c-4.7,0-8.4-3.8-8.4-8.4V8.3z"/>
<text transform="matrix(1 0 0 1 44.5339 23.9173)" class="st1 st2 st3 st4">PillPay</text>
<g id="_x31_432_-_Cash_Register">
	<g>
		<path class="st1" d="M7.2,19.8V24h18.5v-4.2H7.2z M16.5,22.9c-0.9,0-1.7-0.4-1.7-0.9s0.8-0.9,1.7-0.9s1.7,0.4,1.7,0.9
			S17.4,22.9,16.5,22.9z"/>
		<rect x="17.8" y="11" class="st1" width="0.7" height="1.3"/>
		<rect x="21.9" y="11" class="st1" width="0.7" height="1.3"/>
		<path class="st1" d="M22.6,7.7H14v2.9h8.6V7.7z M15.6,9.9h-0.8c-0.1,0-0.2-0.1-0.2-0.2c0-0.1,0.1-0.2,0.2-0.2h0.8
			c0.1,0,0.2,0.1,0.2,0.2C15.9,9.8,15.7,9.9,15.6,9.9z M15.6,8.8h-0.8c-0.1,0-0.2-0.1-0.2-0.2c0-0.1,0.1-0.2,0.2-0.2h0.8
			c0.1,0,0.2,0.1,0.2,0.2C15.9,8.7,15.7,8.8,15.6,8.8z M17.6,9.9h-0.8c-0.1,0-0.2-0.1-0.2-0.2c0-0.1,0.1-0.2,0.2-0.2h0.8
			c0.1,0,0.2,0.1,0.2,0.2C17.9,9.8,17.8,9.9,17.6,9.9z M17.6,8.8h-0.8c-0.1,0-0.2-0.1-0.2-0.2c0-0.1,0.1-0.2,0.2-0.2h0.8
			c0.1,0,0.2,0.1,0.2,0.2C17.9,8.7,17.8,8.8,17.6,8.8z M19.7,9.9h-0.8c-0.1,0-0.2-0.1-0.2-0.2c0-0.1,0.1-0.2,0.2-0.2h0.8
			c0.1,0,0.2,0.1,0.2,0.2C19.9,9.8,19.8,9.9,19.7,9.9z M19.7,8.8h-0.8c-0.1,0-0.2-0.1-0.2-0.2c0-0.1,0.1-0.2,0.2-0.2h0.8
			c0.1,0,0.2,0.1,0.2,0.2C19.9,8.7,19.8,8.8,19.7,8.8z M21.7,9.9h-0.8c-0.1,0-0.2-0.1-0.2-0.2c0-0.1,0.1-0.2,0.2-0.2h0.8
			c0.1,0,0.2,0.1,0.2,0.2C21.9,9.8,21.8,9.9,21.7,9.9z M21.7,8.8h-0.8c-0.1,0-0.2-0.1-0.2-0.2c0-0.1,0.1-0.2,0.2-0.2h0.8
			c0.1,0,0.2,0.1,0.2,0.2C21.9,8.7,21.8,8.8,21.7,8.8z"/>
		<rect x="9.2" y="11.8" class="st1" width="3" height="0.5"/>
		<path class="st1" d="M12.2,8.4h-3v3h3V8.4L12.2,8.4z M11.5,10.6H9.9c-0.1,0-0.2-0.1-0.2-0.2c0-0.1,0.1-0.2,0.2-0.2h1.7
			c0.1,0,0.2,0.1,0.2,0.2C11.7,10.5,11.6,10.6,11.5,10.6z M11.5,9.6H9.9c-0.1,0-0.2-0.1-0.2-0.2c0-0.1,0.1-0.2,0.2-0.2h1.7
			c0.1,0,0.2,0.1,0.2,0.2C11.7,9.5,11.6,9.6,11.5,9.6z"/>
		<path class="st1" d="M24.5,12.8h-16l-1.2,6.6h18.4L24.5,12.8z M9.7,18.8c-0.2,0-0.3-0.1-0.3-0.3c0-0.2,0.1-0.3,0.3-0.3
			s0.3,0.1,0.3,0.3C10,18.6,9.9,18.8,9.7,18.8z M9.7,17.8c-0.2,0-0.3-0.1-0.3-0.3c0-0.2,0.1-0.3,0.3-0.3s0.3,0.1,0.3,0.3
			C10,17.7,9.9,17.8,9.7,17.8z M11.1,18.8c-0.2,0-0.3-0.1-0.3-0.3c0-0.2,0.1-0.3,0.3-0.3s0.3,0.1,0.3,0.3
			C11.4,18.6,11.2,18.8,11.1,18.8z M11.1,17.8c-0.2,0-0.3-0.1-0.3-0.3c0-0.2,0.1-0.3,0.3-0.3s0.3,0.1,0.3,0.3
			C11.4,17.7,11.2,17.8,11.1,17.8z M12.4,18.8c-0.2,0-0.3-0.1-0.3-0.3c0-0.2,0.1-0.3,0.3-0.3s0.3,0.1,0.3,0.3
			C12.7,18.6,12.6,18.8,12.4,18.8z M12.4,17.8c-0.2,0-0.3-0.1-0.3-0.3c0-0.2,0.1-0.3,0.3-0.3s0.3,0.1,0.3,0.3
			C12.7,17.7,12.6,17.8,12.4,17.8z M13.8,18.8c-0.2,0-0.3-0.1-0.3-0.3c0-0.2,0.1-0.3,0.3-0.3s0.3,0.1,0.3,0.3
			C14.1,18.6,13.9,18.8,13.8,18.8z M13.8,17.8c-0.2,0-0.3-0.1-0.3-0.3c0-0.2,0.1-0.3,0.3-0.3s0.3,0.1,0.3,0.3
			C14.1,17.7,13.9,17.8,13.8,17.8z M17.6,16.5H9.4v-2.8h8.3V16.5z M23.8,18.5h-2.7v-4.7h2.7V18.5z"/>
	</g>
</g>
</svg>
