<?xml version="1.0" encoding="utf-8"?>
<!-- Generator: Adobe Illustrator 26.4.1, SVG Export Plug-In . SVG Version: 6.00 Build 0)  -->
<svg version="1.1" id="Layer_1" xmlns="http://www.w3.org/2000/svg" xmlns:xlink="http://www.w3.org/1999/xlink" x="0px" y="0px"
	 viewBox="0 0 154 32" style="enable-background:new 0 0 154 32;" xml:space="preserve">
<style type="text/css">
	.st0{fill:#465FFF;}
	.st1{font-family:'Poppins-SemiBold';}
	.st2{font-size:22.7459px;}
	.st3{letter-spacing:1;}
	.st4{fill:#FFFFFF;}
</style>
<path class="st0" d="M-0.1,8.3c0-4.7,3.8-8.4,8.4-8.4h15.2c4.7,0,8.4,3.8,8.4,8.4v15.2c0,4.7-3.8,8.4-8.4,8.4H8.4
	c-4.7,0-8.4-3.8-8.4-8.4V8.3z"/>
<text transform="matrix(1 0 0 1 44 23.9619)" class="st1 st2 st3">PillPay</text>
<g id="_x31_432_-_Cash_Register">
	<g>
		<path class="st4" d="M6.7,19.9v4.2h18.5v-4.2H6.7z M15.9,22.9c-0.9,0-1.7-0.4-1.7-0.9s0.8-0.9,1.7-0.9c0.9,0,1.7,0.4,1.7,0.9
			S16.9,22.9,15.9,22.9z"/>
		<rect x="17.2" y="11.1" class="st4" width="0.7" height="1.3"/>
		<rect x="21.4" y="11.1" class="st4" width="0.7" height="1.3"/>
		<path class="st4" d="M22,7.7h-8.6v2.9H22V7.7z M15.1,10h-0.8c-0.1,0-0.2-0.1-0.2-0.2s0.1-0.2,0.2-0.2h0.8c0.1,0,0.2,0.1,0.2,0.2
			C15.3,9.9,15.2,10,15.1,10z M15.1,8.8h-0.8c-0.1,0-0.2-0.1-0.2-0.2s0.1-0.2,0.2-0.2h0.8c0.1,0,0.2,0.1,0.2,0.2
			C15.3,8.7,15.2,8.8,15.1,8.8z M17.1,10h-0.8c-0.1,0-0.2-0.1-0.2-0.2s0.1-0.2,0.2-0.2h0.8c0.1,0,0.2,0.1,0.2,0.2S17.2,10,17.1,10z
			 M17.1,8.8h-0.8c-0.1,0-0.2-0.1-0.2-0.2s0.1-0.2,0.2-0.2h0.8c0.1,0,0.2,0.1,0.2,0.2S17.2,8.8,17.1,8.8z M19.1,10h-0.8
			c-0.1,0-0.2-0.1-0.2-0.2s0.1-0.2,0.2-0.2h0.8c0.1,0,0.2,0.1,0.2,0.2C19.3,9.9,19.2,10,19.1,10z M19.1,8.8h-0.8
			c-0.1,0-0.2-0.1-0.2-0.2s0.1-0.2,0.2-0.2h0.8c0.1,0,0.2,0.1,0.2,0.2C19.3,8.7,19.2,8.8,19.1,8.8z M21.1,10h-0.8
			c-0.1,0-0.2-0.1-0.2-0.2s0.1-0.2,0.2-0.2h0.8c0.1,0,0.2,0.1,0.2,0.2S21.2,10,21.1,10z M21.1,8.8h-0.8c-0.1,0-0.2-0.1-0.2-0.2
			s0.1-0.2,0.2-0.2h0.8c0.1,0,0.2,0.1,0.2,0.2S21.2,8.8,21.1,8.8z"/>
		<rect x="8.7" y="11.9" class="st4" width="3" height="0.5"/>
		<path class="st4" d="M11.7,8.4h-3v3h3V8.4L11.7,8.4z M11,10.6H9.3c-0.1,0-0.2-0.1-0.2-0.2c0-0.1,0.1-0.2,0.2-0.2H11
			c0.1,0,0.2,0.1,0.2,0.2C11.2,10.5,11.1,10.6,11,10.6z M11,9.6H9.3c-0.1,0-0.2-0.1-0.2-0.2c0-0.1,0.1-0.2,0.2-0.2H11
			c0.1,0,0.2,0.1,0.2,0.2C11.2,9.5,11.1,9.6,11,9.6z"/>
		<path class="st4" d="M24,12.8H8l-1.2,6.6h18.4L24,12.8z M9.2,18.8c-0.2,0-0.3-0.1-0.3-0.3c0-0.2,0.1-0.3,0.3-0.3
			c0.2,0,0.3,0.1,0.3,0.3C9.5,18.7,9.4,18.8,9.2,18.8z M9.2,17.9c-0.2,0-0.3-0.1-0.3-0.3s0.1-0.3,0.3-0.3c0.2,0,0.3,0.1,0.3,0.3
			S9.4,17.9,9.2,17.9z M10.5,18.8c-0.2,0-0.3-0.1-0.3-0.3c0-0.2,0.1-0.3,0.3-0.3c0.2,0,0.3,0.1,0.3,0.3
			C10.9,18.7,10.7,18.8,10.5,18.8z M10.5,17.9c-0.2,0-0.3-0.1-0.3-0.3s0.1-0.3,0.3-0.3c0.2,0,0.3,0.1,0.3,0.3S10.7,17.9,10.5,17.9z
			 M11.9,18.8c-0.2,0-0.3-0.1-0.3-0.3c0-0.2,0.1-0.3,0.3-0.3c0.2,0,0.3,0.1,0.3,0.3C12.2,18.7,12.1,18.8,11.9,18.8z M11.9,17.9
			c-0.2,0-0.3-0.1-0.3-0.3s0.1-0.3,0.3-0.3c0.2,0,0.3,0.1,0.3,0.3S12.1,17.9,11.9,17.9z M13.2,18.8c-0.2,0-0.3-0.1-0.3-0.3
			c0-0.2,0.1-0.3,0.3-0.3c0.2,0,0.3,0.1,0.3,0.3C13.5,18.7,13.4,18.8,13.2,18.8z M13.2,17.9c-0.2,0-0.3-0.1-0.3-0.3s0.1-0.3,0.3-0.3
			c0.2,0,0.3,0.1,0.3,0.3S13.4,17.9,13.2,17.9z M17.1,16.5H8.8v-2.8h8.3V16.5z M23.3,18.5h-2.7v-4.7h2.7V18.5z"/>
	</g>
</g>
</svg>
